<mxfile host="65bd71144e">
    <diagram id="0m8heuWfbfn4sRQig8lF" name="Page-1">
        <mxGraphModel dx="986" dy="1676" grid="1" gridSize="10" guides="1" tooltips="1" connect="1" arrows="1" fold="1" page="1" pageScale="1" pageWidth="850" pageHeight="1100" math="0" shadow="0">
            <root>
                <mxCell id="0"/>
                <mxCell id="1" parent="0"/>
                <mxCell id="2" value="INICIO" style="ellipse;whiteSpace=wrap;html=1;fillColor=#00994D;" vertex="1" parent="1">
                    <mxGeometry x="365" y="-1070" width="120" height="80" as="geometry"/>
                </mxCell>
                <mxCell id="6" value="" style="edgeStyle=none;html=1;" edge="1" parent="1" source="3" target="5">
                    <mxGeometry relative="1" as="geometry"/>
                </mxCell>
                <mxCell id="3" value="dl" style="shape=parallelogram;perimeter=parallelogramPerimeter;whiteSpace=wrap;html=1;fixedSize=1;fillColor=#994C00;" vertex="1" parent="1">
                    <mxGeometry x="365" y="-980" width="120" height="60" as="geometry"/>
                </mxCell>
                <mxCell id="4" value="" style="endArrow=none;html=1;entryX=0.5;entryY=1;entryDx=0;entryDy=0;exitX=0.5;exitY=0;exitDx=0;exitDy=0;" edge="1" parent="1" source="3" target="2">
                    <mxGeometry width="50" height="50" relative="1" as="geometry">
                        <mxPoint x="420" y="-930" as="sourcePoint"/>
                        <mxPoint x="450" y="-850" as="targetPoint"/>
                    </mxGeometry>
                </mxCell>
                <mxCell id="5" value="dl&amp;lt;=3" style="rhombus;whiteSpace=wrap;html=1;fillColor=#990000;" vertex="1" parent="1">
                    <mxGeometry x="385" y="-890" width="80" height="80" as="geometry"/>
                </mxCell>
                <mxCell id="7" value="" style="endArrow=none;html=1;exitX=1;exitY=0.5;exitDx=0;exitDy=0;" edge="1" parent="1" source="5">
                    <mxGeometry width="50" height="50" relative="1" as="geometry">
                        <mxPoint x="510" y="-820" as="sourcePoint"/>
                        <mxPoint x="560" y="-850" as="targetPoint"/>
                    </mxGeometry>
                </mxCell>
                <mxCell id="8" value="" style="endArrow=none;html=1;exitX=0.5;exitY=0;exitDx=0;exitDy=0;" edge="1" parent="1" source="9">
                    <mxGeometry width="50" height="50" relative="1" as="geometry">
                        <mxPoint x="560" y="-790" as="sourcePoint"/>
                        <mxPoint x="560" y="-850" as="targetPoint"/>
                    </mxGeometry>
                </mxCell>
                <mxCell id="9" value="cl = 300" style="rounded=0;whiteSpace=wrap;html=1;fillColor=#006600;" vertex="1" parent="1">
                    <mxGeometry x="500" y="-800" width="120" height="60" as="geometry"/>
                </mxCell>
                <mxCell id="10" value="" style="endArrow=none;html=1;" edge="1" parent="1">
                    <mxGeometry width="50" height="50" relative="1" as="geometry">
                        <mxPoint x="310" y="-850" as="sourcePoint"/>
                        <mxPoint x="380" y="-850" as="targetPoint"/>
                    </mxGeometry>
                </mxCell>
                <mxCell id="11" value="" style="endArrow=none;html=1;exitX=0.5;exitY=0;exitDx=0;exitDy=0;" edge="1" parent="1" source="19">
                    <mxGeometry width="50" height="50" relative="1" as="geometry">
                        <mxPoint x="310" y="-820" as="sourcePoint"/>
                        <mxPoint x="310" y="-850" as="targetPoint"/>
                    </mxGeometry>
                </mxCell>
                <mxCell id="19" value="P = N - 3&lt;br&gt;A = P * 50&lt;br&gt;Y = J + A" style="rounded=0;whiteSpace=wrap;html=1;fillColor=#990099;" vertex="1" parent="1">
                    <mxGeometry x="250" y="-800" width="120" height="60" as="geometry"/>
                </mxCell>
                <mxCell id="20" value="cl" style="shape=document;whiteSpace=wrap;html=1;boundedLbl=1;fillColor=#663300;" vertex="1" parent="1">
                    <mxGeometry x="250" y="-700" width="120" height="80" as="geometry"/>
                </mxCell>
                <mxCell id="21" value="" style="endArrow=none;html=1;entryX=0.5;entryY=1;entryDx=0;entryDy=0;exitX=0.5;exitY=0;exitDx=0;exitDy=0;" edge="1" parent="1" source="20" target="19">
                    <mxGeometry width="50" height="50" relative="1" as="geometry">
                        <mxPoint x="350" y="-680" as="sourcePoint"/>
                        <mxPoint x="400" y="-730" as="targetPoint"/>
                    </mxGeometry>
                </mxCell>
                <mxCell id="22" value="cl" style="shape=document;whiteSpace=wrap;html=1;boundedLbl=1;fillColor=#6600CC;" vertex="1" parent="1">
                    <mxGeometry x="500" y="-710" width="120" height="80" as="geometry"/>
                </mxCell>
                <mxCell id="23" value="" style="endArrow=none;html=1;entryX=0.5;entryY=1;entryDx=0;entryDy=0;exitX=0.5;exitY=0;exitDx=0;exitDy=0;" edge="1" parent="1" source="22" target="9">
                    <mxGeometry width="50" height="50" relative="1" as="geometry">
                        <mxPoint x="470" y="-690" as="sourcePoint"/>
                        <mxPoint x="520" y="-740" as="targetPoint"/>
                    </mxGeometry>
                </mxCell>
                <mxCell id="24" value="" style="endArrow=none;html=1;entryX=0.5;entryY=0.93;entryDx=0;entryDy=0;entryPerimeter=0;" edge="1" parent="1" target="20">
                    <mxGeometry width="50" height="50" relative="1" as="geometry">
                        <mxPoint x="310" y="-540" as="sourcePoint"/>
                        <mxPoint x="335" y="-570" as="targetPoint"/>
                    </mxGeometry>
                </mxCell>
                <mxCell id="25" value="" style="endArrow=none;html=1;exitX=0.53;exitY=0.805;exitDx=0;exitDy=0;exitPerimeter=0;" edge="1" parent="1" source="22">
                    <mxGeometry width="50" height="50" relative="1" as="geometry">
                        <mxPoint x="400" y="-620" as="sourcePoint"/>
                        <mxPoint x="564" y="-540" as="targetPoint"/>
                    </mxGeometry>
                </mxCell>
                <mxCell id="26" value="" style="endArrow=none;html=1;" edge="1" parent="1">
                    <mxGeometry width="50" height="50" relative="1" as="geometry">
                        <mxPoint x="310" y="-540" as="sourcePoint"/>
                        <mxPoint x="560" y="-540" as="targetPoint"/>
                    </mxGeometry>
                </mxCell>
                <mxCell id="27" value="" style="endArrow=none;html=1;" edge="1" parent="1" target="28">
                    <mxGeometry width="50" height="50" relative="1" as="geometry">
                        <mxPoint x="430" y="-540" as="sourcePoint"/>
                        <mxPoint x="450" y="-670" as="targetPoint"/>
                    </mxGeometry>
                </mxCell>
                <mxCell id="28" value="FIN" style="ellipse;whiteSpace=wrap;html=1;fillColor=#333300;" vertex="1" parent="1">
                    <mxGeometry x="370" y="-510" width="120" height="80" as="geometry"/>
                </mxCell>
            </root>
        </mxGraphModel>
    </diagram>
</mxfile>